<svg width="642" height="397" viewBox="0 0 642 397" fill="none" xmlns="http://www.w3.org/2000/svg">
<g clip-path="url(#clip0)">
<path d="M592.008 388.589H583.004L578.719 320.341H592.008V388.589Z" fill="#A0616A"/>
<path d="M576.573 386.08H593.937V396.741H565.64C565.64 395.341 565.923 393.955 566.472 392.661C567.021 391.368 567.827 390.193 568.842 389.203C569.857 388.213 571.062 387.427 572.389 386.892C573.715 386.356 575.137 386.08 576.573 386.08Z" fill="#2F2E41"/>
<path d="M636.927 379.358L628.655 382.824L593.152 318.541L605.361 313.424L636.927 379.358Z" fill="#A0616A"/>
<path d="M621.73 382.996L637.683 376.31L642 386.105L616.002 397C615.435 395.714 615.134 394.331 615.115 392.931C615.096 391.531 615.36 390.141 615.892 388.841C616.424 387.541 617.213 386.355 618.215 385.352C619.216 384.349 620.411 383.548 621.73 382.996Z" fill="#2F2E41"/>
<path d="M505.797 90.3094H349.803C348.571 90.3081 347.389 89.83 346.517 88.9801C345.646 88.1301 345.156 86.9778 345.154 85.7758V4.53363C345.156 3.33166 345.646 2.17932 346.517 1.3294C347.389 0.47948 348.571 0.00139364 349.803 7.62939e-06H505.797C507.03 0.00139365 508.212 0.479479 509.083 1.3294C509.955 2.17932 510.445 3.33167 510.446 4.53363V85.7758C510.445 86.9778 509.955 88.1301 509.083 88.9801C508.212 89.83 507.03 90.3081 505.797 90.3094Z" fill="#E0E0E0"/>
<path d="M376.446 56.8515C385.919 56.8515 393.599 49.3628 393.599 40.1251C393.599 30.8873 385.919 23.3987 376.446 23.3987C366.973 23.3987 359.293 30.8873 359.293 40.1251C359.293 49.3628 366.973 56.8515 376.446 56.8515Z" fill="white"/>
<path d="M486.897 25.148H416.864C416.168 25.148 415.501 24.8785 415.009 24.3989C414.517 23.9193 414.241 23.2688 414.241 22.5905C414.241 21.9122 414.517 21.2617 415.009 20.7821C415.501 20.3025 416.168 20.0331 416.864 20.0331H486.897C487.592 20.0331 488.26 20.3025 488.751 20.7821C489.243 21.2617 489.52 21.9122 489.52 22.5905C489.52 23.2688 489.243 23.9193 488.751 24.3989C488.26 24.8785 487.592 25.148 486.897 25.148Z" fill="white"/>
<path d="M450.234 36.8393H416.864C416.168 36.8393 415.501 36.5699 415.009 36.0903C414.517 35.6107 414.241 34.9602 414.241 34.2819C414.241 33.6036 414.517 32.9531 415.009 32.4735C415.501 31.9939 416.168 31.7244 416.864 31.7244H450.234C450.93 31.7244 451.597 31.9939 452.089 32.4735C452.58 32.9531 452.857 33.6036 452.857 34.2819C452.857 34.9602 452.58 35.6107 452.089 36.0903C451.597 36.5699 450.93 36.8393 450.234 36.8393Z" fill="white"/>
<path d="M473.737 48.5255H416.864C416.168 48.5255 415.501 48.2561 415.009 47.7764C414.517 47.2968 414.241 46.6463 414.241 45.9681C414.241 45.2898 414.517 44.6393 415.009 44.1597C415.501 43.68 416.168 43.4106 416.864 43.4106H473.737C474.432 43.4106 475.1 43.68 475.591 44.1597C476.083 44.6393 476.36 45.2898 476.36 45.9681C476.36 46.6463 476.083 47.2968 475.591 47.7764C475.1 48.2561 474.432 48.5255 473.737 48.5255Z" fill="white"/>
<path d="M486.897 60.2117H416.864C416.168 60.2117 415.501 59.9422 415.009 59.4626C414.517 58.983 414.241 58.3325 414.241 57.6542C414.241 56.9759 414.517 56.3254 415.009 55.8458C415.501 55.3662 416.168 55.0968 416.864 55.0968H486.897C487.592 55.0968 488.26 55.3662 488.751 55.8458C489.243 56.3254 489.52 56.9759 489.52 57.6542C489.52 58.3325 489.243 58.983 488.751 59.4626C488.26 59.9422 487.592 60.2117 486.897 60.2117Z" fill="white"/>
<path d="M484.704 81.3542H473.108C472.475 81.3553 471.848 81.2346 471.262 80.999C470.677 80.7635 470.145 80.4178 469.697 79.9816C469.249 79.5454 468.894 79.0273 468.651 78.4571C468.409 77.8868 468.284 77.2754 468.284 76.6581C468.284 76.0407 468.409 75.4294 468.651 74.8591C468.894 74.2888 469.249 73.7707 469.697 73.3345C470.145 72.8984 470.677 72.5526 471.262 72.3171C471.848 72.0816 472.475 71.9609 473.108 71.9619H484.704C485.981 71.9619 487.206 72.4567 488.109 73.3374C489.012 74.2181 489.52 75.4126 489.52 76.6581C489.52 77.9035 489.012 79.098 488.109 79.9787C487.206 80.8594 485.981 81.3542 484.704 81.3542Z" fill="white"/>
<path d="M273.783 97.876H164.864C164.004 97.875 163.179 97.5412 162.57 96.9478C161.962 96.3543 161.619 95.5497 161.618 94.7105V37.9852C161.619 37.1459 161.962 36.3413 162.57 35.7479C163.179 35.1545 164.004 34.8206 164.864 34.8197H273.783C274.644 34.8206 275.469 35.1545 276.078 35.7479C276.686 36.3413 277.028 37.1459 277.029 37.9852V94.7105C277.028 95.5497 276.686 96.3543 276.078 96.9478C275.469 97.5412 274.644 97.875 273.783 97.876Z" fill="#E0E0E0"/>
<path d="M183.467 74.5148C190.081 74.5148 195.444 69.286 195.444 62.836C195.444 56.386 190.081 51.1572 183.467 51.1572C176.853 51.1572 171.491 56.386 171.491 62.836C171.491 69.286 176.853 74.5148 183.467 74.5148Z" fill="white"/>
<path d="M260.587 52.3786H211.688C211.202 52.3786 210.736 52.1905 210.393 51.8556C210.049 51.5207 209.856 51.0665 209.856 50.5929C209.856 50.1193 210.049 49.6651 210.393 49.3303C210.736 48.9954 211.202 48.8073 211.688 48.8073H260.587C261.072 48.8073 261.538 48.9954 261.881 49.3303C262.225 49.6651 262.418 50.1193 262.418 50.5929C262.418 51.0665 262.225 51.5207 261.881 51.8556C261.538 52.1905 261.072 52.3786 260.587 52.3786Z" fill="white"/>
<path d="M234.988 60.5418H211.688C211.203 60.5409 210.738 60.3523 210.395 60.0176C210.052 59.6828 209.86 59.2291 209.86 58.7561C209.86 58.2832 210.052 57.8295 210.395 57.4947C210.738 57.1599 211.203 56.9714 211.688 56.9705H234.988C235.473 56.9714 235.938 57.1599 236.28 57.4947C236.623 57.8295 236.815 58.2832 236.815 58.7561C236.815 59.2291 236.623 59.6828 236.28 60.0176C235.938 60.3523 235.473 60.5409 234.988 60.5418Z" fill="white"/>
<path d="M251.398 68.7014H211.688C211.203 68.7005 210.738 68.5119 210.395 68.1771C210.052 67.8424 209.86 67.3887 209.86 66.9157C209.86 66.4427 210.052 65.9891 210.395 65.6543C210.738 65.3195 211.203 65.131 211.688 65.13H251.398C251.883 65.131 252.348 65.3195 252.69 65.6543C253.033 65.9891 253.226 66.4427 253.226 66.9157C253.226 67.3887 253.033 67.8424 252.69 68.1771C252.348 68.5119 251.883 68.7005 251.398 68.7014Z" fill="white"/>
<path d="M260.587 76.8609H211.688C211.203 76.86 210.738 76.6715 210.395 76.3367C210.052 76.0019 209.86 75.5482 209.86 75.0753C209.86 74.6023 210.052 74.1486 210.395 73.8138C210.738 73.4791 211.203 73.2905 211.688 73.2896H260.587C260.827 73.2891 261.066 73.335 261.288 73.4245C261.511 73.514 261.713 73.6455 261.884 73.8113C262.054 73.9772 262.189 74.1742 262.282 74.3911C262.374 74.608 262.421 74.8405 262.421 75.0753C262.421 75.3101 262.374 75.5426 262.282 75.7594C262.189 75.9763 262.054 76.1733 261.884 76.3392C261.713 76.505 261.511 76.6365 261.288 76.726C261.066 76.8156 260.827 76.8614 260.587 76.8609Z" fill="white"/>
<path d="M259.055 91.6232H250.959C250.067 91.6232 249.212 91.2777 248.581 90.6628C247.95 90.0479 247.596 89.2139 247.596 88.3442C247.596 87.4746 247.95 86.6406 248.581 86.0256C249.212 85.4107 250.067 85.0653 250.959 85.0653H259.055C259.947 85.0653 260.802 85.4107 261.433 86.0256C262.063 86.6406 262.418 87.4746 262.418 88.3442C262.418 89.2139 262.063 90.0479 261.433 90.6628C260.802 91.2777 259.947 91.6232 259.055 91.6232Z" fill="white"/>
<path d="M460.099 185.715H256.425C254.816 185.714 253.273 185.089 252.135 183.98C250.997 182.87 250.357 181.365 250.355 179.796V73.7218C250.357 72.1525 250.997 70.6479 252.135 69.5382C253.273 68.4285 254.816 67.8043 256.425 67.8025H460.099C461.709 67.8043 463.252 68.4285 464.389 69.5382C465.527 70.6479 466.168 72.1525 466.169 73.7218V179.796C466.168 181.365 465.527 182.87 464.389 183.98C463.252 185.089 461.709 185.714 460.099 185.715Z" fill="#834BFF"/>
<path d="M291.211 142.031C303.58 142.031 313.607 132.253 313.607 120.192C313.607 108.131 303.58 98.353 291.211 98.353C278.843 98.353 268.816 108.131 268.816 120.192C268.816 132.253 278.843 142.031 291.211 142.031Z" fill="white"/>
<path d="M435.422 100.637H343.983C343.075 100.637 342.204 100.285 341.562 99.659C340.919 99.0328 340.559 98.1835 340.559 97.2979C340.559 96.4123 340.919 95.5629 341.562 94.9367C342.204 94.3105 343.075 93.9587 343.983 93.9587H435.422C435.872 93.9587 436.317 94.0451 436.732 94.2129C437.148 94.3807 437.525 94.6267 437.843 94.9367C438.161 95.2468 438.413 95.6149 438.586 96.02C438.758 96.4251 438.846 96.8594 438.846 97.2979C438.846 97.7364 438.758 98.1706 438.586 98.5757C438.413 98.9808 438.161 99.3489 437.843 99.659C437.525 99.9691 437.148 100.215 436.732 100.383C436.317 100.551 435.872 100.637 435.422 100.637Z" fill="white"/>
<path d="M387.553 115.902H343.983C343.075 115.902 342.204 115.55 341.562 114.924C340.919 114.298 340.559 113.448 340.559 112.563C340.559 111.677 340.919 110.828 341.562 110.202C342.204 109.575 343.075 109.224 343.983 109.224H387.553C388.461 109.224 389.332 109.575 389.974 110.202C390.617 110.828 390.977 111.677 390.977 112.563C390.977 113.448 390.617 114.298 389.974 114.924C389.332 115.55 388.461 115.902 387.553 115.902Z" fill="white"/>
<path d="M418.24 131.16H343.983C343.075 131.16 342.204 130.808 341.562 130.182C340.919 129.556 340.559 128.706 340.559 127.821C340.559 126.935 340.919 126.086 341.562 125.46C342.204 124.833 343.075 124.482 343.983 124.482H418.24C419.148 124.482 420.019 124.833 420.661 125.46C421.303 126.086 421.664 126.935 421.664 127.821C421.664 128.706 421.303 129.556 420.661 130.182C420.019 130.808 419.148 131.16 418.24 131.16Z" fill="white"/>
<path d="M435.422 146.418H343.983C343.075 146.418 342.204 146.066 341.562 145.44C340.919 144.814 340.559 143.965 340.559 143.079C340.559 142.193 340.919 141.344 341.562 140.718C342.204 140.092 343.075 139.74 343.983 139.74H435.422C436.33 139.74 437.201 140.092 437.843 140.718C438.485 141.344 438.846 142.193 438.846 143.079C438.846 143.965 438.485 144.814 437.843 145.44C437.201 146.066 436.33 146.418 435.422 146.418Z" fill="white"/>
<path d="M432.558 174.023H417.418C416.592 174.024 415.774 173.866 415.01 173.558C414.246 173.25 413.553 172.799 412.968 172.229C412.383 171.66 411.92 170.984 411.603 170.239C411.287 169.495 411.124 168.697 411.124 167.891C411.124 167.086 411.287 166.288 411.603 165.543C411.92 164.799 412.383 164.123 412.968 163.553C413.553 162.984 414.246 162.532 415.01 162.225C415.774 161.917 416.592 161.759 417.418 161.76H432.558C433.385 161.759 434.203 161.917 434.967 162.225C435.73 162.532 436.424 162.984 437.009 163.553C437.593 164.123 438.057 164.799 438.374 165.543C438.69 166.288 438.853 167.086 438.853 167.891C438.853 168.697 438.69 169.495 438.374 170.239C438.057 170.984 437.593 171.66 437.009 172.229C436.424 172.799 435.73 173.25 434.967 173.558C434.203 173.866 433.385 174.024 432.558 174.023Z" fill="white"/>
<path d="M638.25 320.447C638.25 320.447 620.403 231.712 617.589 224.233C616.04 220.145 615.019 217.172 615.019 217.172L562.572 220.097L562.143 224.233L555.073 328.01C555.073 328.01 557.573 321.415 559.815 320.203C562.058 318.991 561.822 327.996 561.822 327.996" fill="#2F2E41"/>
<path d="M562.974 220.06H608.878C607.589 215.562 608.878 211.393 610.72 208.195C612.007 205.948 613.626 203.899 615.526 202.112L615.841 201.837L631.88 198.369L632.743 198.186C632.743 198.186 632.87 169.769 622.555 165.87C616.888 163.756 611.564 160.856 606.746 157.26C606.272 156.895 605.691 156.687 605.087 156.667L582.571 155.863C581.879 155.84 581.201 156.063 580.664 156.488C576.941 159.407 565.103 165.266 558.739 168.332C557.621 168.869 556.758 169.806 556.33 170.947C555.902 172.089 555.941 173.347 556.44 174.461C558.981 180.152 563.3 189.67 563.754 189.67C564.401 189.67 562.974 220.06 562.974 220.06Z" fill="#834BFF"/>
<path d="M594.096 173.972L615.669 228.37C615.669 228.37 601.084 231.65 587.016 214.884L581.939 204.078L570.501 162.895L594.096 173.972Z" fill="#F6F8FB"/>
<path d="M599.823 144.85C615.993 144.85 629.102 132.067 629.102 116.298C629.102 100.529 615.993 87.7456 599.823 87.7456C583.652 87.7456 570.543 100.529 570.543 116.298C570.543 132.067 583.652 144.85 599.823 144.85Z" fill="#2F2E41"/>
<path d="M581.249 211.96C582.05 212.939 583.154 213.64 584.395 213.96C585.637 214.279 586.952 214.2 588.144 213.734L603.83 219.72L609.056 208.197L591.382 205.971C591.039 205.214 590.534 204.536 589.901 203.984C589.268 203.431 588.521 203.017 587.711 202.768C586.901 202.519 586.045 202.442 585.202 202.541C584.359 202.64 583.547 202.914 582.82 203.343C582.094 203.772 581.47 204.348 580.989 205.031C580.509 205.714 580.184 206.489 580.035 207.305C579.886 208.12 579.918 208.958 580.127 209.76C580.336 210.563 580.719 211.313 581.249 211.96Z" fill="#A0616A"/>
<path d="M595.383 151.733C605.732 151.733 614.121 143.552 614.121 133.46C614.121 123.368 605.732 115.188 595.383 115.188C585.034 115.188 576.644 123.368 576.644 133.46C576.644 143.552 585.034 151.733 595.383 151.733Z" fill="#A0616A"/>
<path d="M621.734 121.357C611.769 126.648 600.553 129.291 589.211 129.02C584.866 128.91 580.079 128.14 577.328 124.859C574.223 121.158 575 115.375 577.995 111.588C580.99 107.801 585.675 105.667 590.348 104.219C594.77 102.849 599.509 101.967 604.043 102.925C606.436 103.43 608.69 104.432 610.65 105.862C612.611 107.293 614.232 109.118 615.405 111.214C616.577 113.31 617.273 115.628 617.445 118.01C617.617 120.392 617.261 122.782 616.401 125.017" fill="#2F2E41"/>
<path d="M620.533 112.119C629.604 112.119 636.958 104.948 636.958 96.1023C636.958 87.2563 629.604 80.0853 620.533 80.0853C611.461 80.0853 604.107 87.2563 604.107 96.1023C604.107 104.948 611.461 112.119 620.533 112.119Z" fill="#2F2E41"/>
<path d="M626.416 190.635L632.737 198.186L634.026 218.68C634.026 218.68 635.685 229.116 623.451 226.602C611.218 224.089 595.473 219.202 595.473 219.202C595.473 219.202 603.851 207.359 600.112 203.967L617.65 209.501C617.65 209.501 620.614 208.87 618.291 206.356C615.968 203.843 615.559 199.313 615.559 199.313L626.416 190.635Z" fill="#834BFF"/>
<path d="M593.955 208.379C592.738 208.777 591.421 208.782 590.2 208.394C588.979 208.005 587.919 207.243 587.176 206.221L570.669 202.951L572.69 190.506L588.775 197.987C589.485 197.532 590.286 197.23 591.125 197.101C591.964 196.972 592.822 197.019 593.641 197.238C594.46 197.458 595.222 197.846 595.875 198.375C596.528 198.904 597.058 199.564 597.43 200.309C597.801 201.054 598.005 201.867 598.028 202.695C598.052 203.523 597.894 204.347 597.565 205.11C597.236 205.874 596.744 206.561 596.122 207.124C595.499 207.688 594.761 208.116 593.955 208.379Z" fill="#A0616A"/>
<path d="M572.17 179.603C572.17 179.603 569.306 183.192 565.956 184.074C562.606 184.957 564.746 187.055 564.746 187.055L582.557 191.685C577.529 192.557 577.978 206.937 577.978 206.937C577.978 206.937 562.033 202.713 550.357 198.352C538.682 193.991 545.882 186.102 545.882 186.102L558.366 169.568L567.877 166.57L572.17 179.603Z" fill="#834BFF"/>
<path d="M26.0141 374.941L34.6074 378.542L52.9416 347.934L40.2592 342.619L26.0141 374.941Z" fill="#FFB8B8"/>
<path d="M47.7508 393.269L20.7432 381.95L25.2277 371.775L42.1907 378.884C44.8547 380 46.9548 382.103 48.029 384.729C49.1031 387.356 49.0634 390.29 47.9185 392.888L47.7508 393.269L47.7508 393.269Z" fill="#2F2E41"/>
<path d="M85.2895 385.254H94.6434L99.0946 350.074H85.2895V385.254Z" fill="#FFB8B8"/>
<path d="M112.682 393.723H83.2855V382.648H101.749C104.648 382.648 107.429 383.771 109.479 385.771C111.53 387.77 112.682 390.482 112.682 393.309V393.724L112.682 393.723Z" fill="#2F2E41"/>
<g opacity="0.1">
<path opacity="0.1" d="M28.3492 116.849L28.8777 116.961C28.7233 116.857 28.5335 116.817 28.3492 116.849Z" fill="url(#paint0_linear)"/>
</g>
<path d="M101.087 353.751L79.572 354.583C74.3195 351.139 58.0129 269.795 58.0129 269.795C58.1242 270.425 55.9727 350.532 55.9727 350.532H32.8259L21.4539 225.613L34.0055 230.541C34.0055 230.541 91.4803 225.997 94.1585 229.23C94.7223 230.286 101.087 353.751 101.087 353.751Z" fill="#2F2E41"/>
<path d="M52.6333 137.108C62.9822 137.108 71.3716 128.927 71.3716 118.836C71.3716 108.744 62.9822 100.563 52.6333 100.563C42.2845 100.563 33.8951 108.744 33.8951 118.836C33.8951 128.927 42.2845 137.108 52.6333 137.108Z" fill="#FFB8B8"/>
<path d="M84.3851 263.082C83.5775 262.046 83.1334 260.785 83.1187 259.484C83.104 258.183 83.5194 256.912 84.3034 255.859L82.1024 238.931L95.3325 236.723L93.1445 254.649C93.8401 255.179 94.4119 255.847 94.8218 256.609C95.2317 257.371 95.4702 258.209 95.5215 259.068C95.5727 259.927 95.4355 260.787 95.119 261.59C94.8025 262.394 94.314 263.122 93.686 263.726C93.058 264.331 92.3051 264.798 91.4774 265.096C90.6497 265.395 89.7663 265.517 88.886 265.456C88.0058 265.395 87.1491 265.152 86.3729 264.743C85.5968 264.333 84.9191 263.767 84.3851 263.082H84.3851Z" fill="#FFB8B8"/>
<path d="M55.4722 106.58L55.8853 106.667C55.7639 106.588 55.6162 106.557 55.4722 106.58Z" fill="#E1E7EF"/>
<path d="M46.6163 111.987C50.696 112.856 54.8475 113.685 59.0142 113.415C63.1809 113.145 67.4305 111.64 70.1361 108.539C72.8418 105.437 73.5901 100.567 71.1886 97.2357C68.3331 93.2744 62.6069 92.7995 57.6425 92.6991L41.9997 92.3828C38.909 92.3203 35.6659 92.2909 32.9286 93.6918C28.1729 96.1257 26.5312 102.037 26.6263 107.274C26.7521 112.281 27.987 117.203 30.2463 121.702C32.5057 126.2 35.736 130.169 39.7157 133.336C41.8328 134.998 45.3181 136.261 46.9318 134.129C47.6354 133.199 40.7655 122.5 40.7457 121.345C40.6305 114.629 47.3942 117.365 47.279 110.649" fill="#2F2E41"/>
<path d="M28.5583 230.222C46.3896 243.821 66.072 250.675 88.3522 248.063C78.9423 215.844 76.1512 183.87 85.2287 152.334L66.4873 144.066L41.0525 142.761L25.7412 147.152C23.5873 147.77 21.7017 149.062 20.3746 150.828C19.0475 152.594 18.3526 154.737 18.3969 156.926C18.9376 183.821 21.4719 208.991 28.5583 230.222Z" fill="#E0E0E0"/>
<path d="M84.7824 250.673L96.3842 251.979L93.6677 167.969C93.5464 164.215 92.319 160.575 90.1324 157.483C87.9458 154.392 84.8925 151.979 81.3374 150.535L77.1966 148.852L78.3122 188.232L84.7824 250.673Z" fill="#E0E0E0"/>
<path d="M27.9135 245.007C26.7515 244.367 25.8316 243.38 25.2901 242.191C24.7486 241.002 24.6143 239.674 24.9071 238.405L16.0157 223.708L27.2693 216.575L32.5354 233.882C33.3891 234.1 34.1853 234.493 34.871 235.034C35.5567 235.576 36.116 236.254 36.5117 237.023C36.9074 237.792 37.1304 238.635 37.1657 239.495C37.201 240.354 37.0479 241.212 36.7166 242.009C36.3852 242.807 35.8833 243.526 35.2442 244.12C34.6052 244.713 33.8437 245.167 33.0106 245.45C32.1775 245.734 31.292 245.841 30.413 245.765C29.5341 245.688 28.682 245.43 27.9135 245.007Z" fill="#FFB8B8"/>
<path d="M23.2036 238.49L34.066 230.677L22.3111 196.717L26.5503 146.894C17.3417 149.717 7.4541 157.298 5.82553 166.576L1.52588e-05 199.763L23.2036 238.49Z" fill="#E0E0E0"/>
<path opacity="0.2" d="M27.7981 188.718L23.0169 207.366L33.8661 233.828L25.5913 208.8L27.7981 188.718Z" fill="black"/>
<path opacity="0.2" d="M75.1537 198.385L78.8443 238.345L72.5949 198.664L75.1537 198.385Z" fill="black"/>
</g>
<defs>
<linearGradient id="paint0_linear" x1="28.6134" y1="116.989" x2="28.6134" y2="116.863" gradientUnits="userSpaceOnUse">
<stop stop-color="#808080" stop-opacity="0.25"/>
<stop offset="0.54" stop-color="#808080" stop-opacity="0.12"/>
<stop offset="1" stop-color="#808080" stop-opacity="0.1"/>
</linearGradient>
<clipPath id="clip0">
<rect width="642" height="397" fill="white"/>
</clipPath>
</defs>
</svg>
