<svg width="370" height="323" viewBox="0 0 370 323" fill="none" xmlns="http://www.w3.org/2000/svg">
<g clip-path="url(#clip0)">
<path d="M269.485 60.0141C269.44 72.5533 268.484 85.0769 266.623 97.5068C266.558 97.9434 266.487 98.3799 266.421 98.8164H134.123C133.732 98.3851 133.347 97.9486 132.974 97.5068C131.729 96.0448 130.562 94.5407 129.49 92.9839C124.335 85.4844 121.941 76.6857 124.246 70.5956L124.287 70.5009C124.785 69.1674 125.574 67.9342 126.61 66.8721C131.919 61.5077 142.727 62.3439 152.556 66.6039C143.71 58.105 136.641 47.3605 136.049 37.7415C135.468 28.3591 140.955 21.6274 146.916 15.9001C147.111 15.7108 147.307 15.5267 147.502 15.3426C147.597 15.2479 147.698 15.1585 147.792 15.0639C152.444 10.6988 157.871 6.39149 165.77 6.8701C174.432 7.39602 184.073 13.7859 190.851 21.254C197.63 28.7167 202.156 37.2103 206.743 45.4988C211.335 53.782 216.3 62.2756 223.629 69.3387C213.693 58.3102 205.658 45.746 202.642 33.5026C199.627 21.2592 202.139 9.4734 210.896 3.65674C213.555 1.94489 216.637 0.823194 219.885 0.385525C220.264 0.327674 220.649 0.280342 221.04 0.238268C229.175 -0.624211 238.911 1.82654 247.218 7.7589C256.366 14.2908 262.742 24.0098 265.942 33.2502C269.141 42.4905 269.532 51.3996 269.485 60.0141Z" fill="#FAFAFA"/>
<path d="M183.172 98.8167H180.642C179.836 98.375 179.026 97.9385 178.213 97.5072C177.709 97.2284 177.2 96.9602 176.69 96.6868C168.27 92.1796 159.799 87.8583 151.277 83.7229C142.762 79.5839 134.206 75.6377 125.609 71.8844C125.381 71.7977 125.194 71.6429 125.082 71.4469C124.969 71.2509 124.938 71.0261 124.992 70.8116C125.001 70.7834 125.015 70.7568 125.034 70.7327C125.152 70.5328 125.419 70.4487 125.81 70.617C126.865 71.0798 127.925 71.5426 128.98 72.0159C137.601 75.8341 146.187 79.8451 154.737 84.0489C163.281 88.251 171.778 92.6407 180.227 97.2179C180.405 97.3126 180.583 97.4125 180.76 97.5072C181.566 97.9437 182.366 98.3802 183.172 98.8167Z" fill="#E0E0E0"/>
<path d="M215.79 98.8167H214.226C213.871 98.3802 213.521 97.9437 213.165 97.5072C204.811 87.2307 196.459 76.9543 188.108 66.6779C174.432 49.8537 160.761 33.0296 147.094 16.2055C147.013 16.115 146.952 16.0114 146.916 15.9004C146.797 15.527 147.105 15.3062 147.502 15.343C147.67 15.3633 147.83 15.4152 147.973 15.495C148.116 15.5748 148.239 15.6807 148.332 15.8058C155.999 25.2408 163.664 34.6722 171.328 44.1002C184.932 60.8402 198.534 77.5784 212.135 94.3149C213 95.3772 213.865 96.4448 214.73 97.5072C215.085 97.9437 215.441 98.3802 215.79 98.8167Z" fill="#E0E0E0"/>
<path d="M250.589 90.5809C250.524 92.9212 250.364 95.2247 250.151 97.5072C250.109 97.9437 250.068 98.3802 250.026 98.8167H248.385C248.432 98.3803 248.48 97.9437 248.521 97.5072C248.847 94.2097 249.072 90.8754 249.084 87.4517C249.068 77.9597 247.966 68.4937 245.796 59.1993C243.488 49.1916 240.203 39.3813 235.978 29.8794C231.543 19.8577 226.211 10.1674 220.033 0.901267C219.917 0.750317 219.864 0.567793 219.885 0.385869C219.95 -0.0296067 220.572 -0.155826 221.04 0.238612C221.133 0.315999 221.212 0.404514 221.277 0.501571C222.041 1.65333 222.792 2.8086 223.529 3.96737C229.481 13.2862 234.587 23.0115 238.798 33.0507C242.809 42.5848 245.876 52.4111 247.964 62.4179C249.92 71.7015 250.799 81.1383 250.589 90.5809Z" fill="#E0E0E0"/>
<path d="M364.827 97.5072H5.16662C3.7967 97.5083 2.48325 97.9919 1.51459 98.8517C0.545926 99.7115 0.00119952 100.877 -3.8147e-06 102.093V318.414C0.00119796 319.63 0.545925 320.796 1.51459 321.656C2.48325 322.515 3.7967 322.999 5.16662 323H364.827C365.574 323 366.312 322.856 366.991 322.578C367.669 322.3 368.271 321.895 368.756 321.391C368.797 321.351 368.835 321.309 368.869 321.264C369.177 320.93 369.427 320.556 369.609 320.155C369.869 319.603 370.002 319.012 370 318.414V102.093C369.999 100.876 369.453 99.7099 368.483 98.85C367.513 97.9901 366.198 97.5071 364.827 97.5072ZM368.525 318.414C368.525 319.054 368.313 319.68 367.914 320.213C367.56 320.682 367.08 321.065 366.516 321.328C365.994 321.567 365.415 321.691 364.827 321.69H5.16662C4.18797 321.689 3.24972 321.344 2.55771 320.73C1.86569 320.115 1.4764 319.283 1.47521 318.414V102.093C1.47639 101.225 1.86569 100.392 2.55771 99.7776C3.24972 99.1633 4.18796 98.8178 5.16662 98.8167H364.827C365.807 98.8166 366.747 99.1616 367.44 99.776C368.133 100.39 368.523 101.224 368.525 102.093V318.414Z" fill="#3F3D56"/>
<path d="M369.259 115.888H0.736301V117.199H369.259V115.888Z" fill="#3F3D56"/>
<path d="M13.2912 111.273C15.7384 111.273 17.7223 109.512 17.7223 107.34C17.7223 105.168 15.7384 103.407 13.2912 103.407C10.8439 103.407 8.86003 105.168 8.86003 107.34C8.86003 109.512 10.8439 111.273 13.2912 111.273Z" fill="#3F3D56"/>
<path d="M26.0307 111.273C28.478 111.273 30.4618 109.512 30.4618 107.34C30.4618 105.168 28.478 103.407 26.0307 103.407C23.5835 103.407 21.5996 105.168 21.5996 107.34C21.5996 109.512 23.5835 111.273 26.0307 111.273Z" fill="#3F3D56"/>
<path d="M38.7702 111.273C41.2175 111.273 43.2014 109.512 43.2014 107.34C43.2014 105.168 41.2175 103.407 38.7702 103.407C36.323 103.407 34.3391 105.168 34.3391 107.34C34.3391 109.512 36.323 111.273 38.7702 111.273Z" fill="#3F3D56"/>
<path d="M164.115 227.341C159.683 224.78 157.479 218.829 158.565 213.387C159.651 207.945 163.74 203.258 168.642 201.236C171.027 200.282 173.641 199.869 176.25 200.034C178.859 200.198 181.382 200.936 183.59 202.179C188.086 204.619 194.444 205.956 196.578 210.837C198.219 214.589 196.138 222.206 193.93 225.85C192.022 228.999 188.395 230.44 184.988 231.066C181.219 231.748 177.328 231.704 173.58 230.936C169.832 230.169 166.313 228.695 163.261 226.616L164.115 227.341Z" fill="#2F2E41"/>
<path d="M161.803 256.245L158.26 261.668L157.792 262.383L157.111 263.435H146.665L147.37 262.383L149.195 259.653L153.449 253.279L158.266 254.988L161.803 256.245Z" fill="#FFB8B8"/>
<path d="M145.882 263.434L143.975 262.383L143.738 262.251L155.712 242.882C156.227 242.043 156.925 241.304 157.764 240.706C158.603 240.109 159.567 239.665 160.601 239.4C161.906 239.055 163.288 239.01 164.618 239.268C165.394 239.414 166.141 239.662 166.834 240.005C167.119 240.144 167.394 240.298 167.658 240.468C168.67 241.098 169.502 241.93 170.087 242.897C170.783 244.03 171.127 245.306 171.083 246.596C171.039 247.885 170.609 249.141 169.838 250.234L165.222 256.782L161.276 262.383L160.535 263.434H145.882Z" fill="#2F2E41"/>
<path d="M176.649 234.215C184.686 234.215 191.202 228.432 191.202 221.298C191.202 214.164 184.686 208.381 176.649 208.381C168.611 208.381 162.096 214.164 162.096 221.298C162.096 228.432 168.611 234.215 176.649 234.215Z" fill="#FFB8B8"/>
<path d="M191.258 263.434H158.545L158.693 263.061C158.61 262.835 158.533 262.609 158.462 262.383C158.385 262.146 158.319 261.904 158.26 261.667C157.729 259.466 157.731 257.189 158.266 254.988C160.073 247.11 167.284 240.71 167.284 240.71C167.409 240.625 167.533 240.546 167.658 240.468C168.73 239.77 169.894 239.191 171.124 238.743C176.48 236.77 182.097 237.565 185.872 238.585C187.186 238.938 188.471 239.372 189.717 239.884C190.156 240.068 190.393 240.184 190.393 240.184L190.766 250.286L191.216 262.383L191.258 263.434Z" fill="#834BFF"/>
<path d="M206.391 262.383L203.89 251.096L201.366 239.716C201.261 239.246 200.998 238.815 200.612 238.48C200.226 238.145 199.735 237.921 199.203 237.838L193.918 237.028L189 236.276C188.526 236.2 188.037 236.241 187.587 236.394C187.137 236.547 186.742 236.806 186.446 237.144C186.077 237.553 185.874 238.061 185.872 238.585C185.872 238.909 185.946 239.229 186.091 239.526C188.657 244.838 188.704 253.247 188.052 262.383C188.023 262.73 187.999 263.082 187.969 263.434H206.628L206.391 262.383Z" fill="#2F2E41"/>
<path d="M171.124 238.743C171.015 238.36 170.801 238.007 170.5 237.716C170.2 237.425 169.822 237.205 169.402 237.076C168.982 236.947 168.532 236.912 168.093 236.975C167.654 237.038 167.24 237.198 166.887 237.438L164.618 239.269L155.327 246.779C155.038 247.009 154.811 247.295 154.664 247.615C153.615 249.839 151.571 254.231 149.195 259.653C148.809 260.537 148.413 261.446 148.004 262.383C147.861 262.73 147.707 263.082 147.553 263.434H162.864C162.989 263.082 163.113 262.73 163.237 262.383C163.919 260.474 164.582 258.601 165.222 256.782C167.095 251.496 168.783 246.695 170.087 242.897C170.448 241.846 170.778 240.874 171.077 239.984C171.216 239.581 171.232 239.153 171.124 238.743Z" fill="#2F2E41"/>
<path d="M209.827 263.435H210.817L210.681 263.14L210.319 262.383L204.743 250.639L203.89 251.097L197.041 254.773L200.554 262.383L201.04 263.435H206.628H209.827Z" fill="#FFB8B8"/>
<path d="M204.175 241.325C203.42 239.572 201.932 238.146 200.02 237.345C198.108 236.545 195.922 236.431 193.918 237.028C193.662 237.103 193.411 237.191 193.166 237.291C191.762 237.847 190.566 238.746 189.717 239.884C189.371 240.338 189.087 240.827 188.87 241.341C188.485 242.232 188.304 243.182 188.335 244.136C188.367 245.091 188.611 246.03 189.054 246.9L190.766 250.287L196.893 262.383L197.426 263.434H209.827L210.681 263.14L212.897 262.383L213.205 262.277L204.175 241.325Z" fill="#2F2E41"/>
<path d="M188.078 206.463C188.586 206.598 189.129 206.58 189.624 206.414C190.119 206.247 190.538 205.94 190.817 205.54C191.081 205.133 191.236 204.677 191.271 204.208C191.306 203.739 191.219 203.27 191.018 202.835C190.605 201.968 189.954 201.206 189.124 200.619C188.182 199.862 187.036 199.335 185.796 199.089C185.176 198.971 184.536 198.972 183.917 199.093C183.298 199.214 182.716 199.451 182.209 199.789C181.712 200.138 181.344 200.611 181.151 201.147C180.958 201.683 180.95 202.258 181.128 202.798C181.504 203.768 182.525 204.418 183.544 204.902C185.567 205.861 187.797 206.423 190.085 206.553L188.078 206.463Z" fill="#2F2E41"/>
<path d="M190.909 220.912C188.57 221.199 188.87 220.142 187.933 218.217C186.996 216.293 185.742 214.009 183.39 213.814C181.463 213.654 179.875 215.022 178.314 216.037C175.531 217.847 171.781 218.733 168.556 217.647C165.33 216.561 163.088 213.149 164.312 210.286C164.693 209.496 165.253 208.783 165.957 208.192C166.661 207.602 167.494 207.146 168.405 206.852C170.231 206.276 172.172 206.037 174.106 206.149C178.409 206.271 182.629 207.23 186.469 208.958C189.118 210.153 191.698 211.863 192.703 214.346C193.709 216.828 194.37 220.317 191.496 220.989L190.909 220.912Z" fill="#2F2E41"/>
<path d="M186.882 199.634C185.726 197.847 186.681 195.396 188.573 194.202C190.465 193.008 193.003 192.891 195.261 193.37C197.494 193.869 199.54 194.881 201.194 196.303C202.848 197.726 204.051 199.509 204.683 201.475C205.641 204.599 205.071 207.955 205.883 211.112C206.315 212.795 207.131 214.382 208.281 215.774C209.43 217.167 210.889 218.336 212.566 219.209C214.244 220.082 216.105 220.642 218.035 220.852C219.966 221.063 221.924 220.921 223.79 220.435C226.221 219.801 228.691 218.261 228.93 216.023C229.181 218.593 228.521 221.169 227.041 223.39C225.561 225.61 223.336 227.365 220.677 228.407C217.546 229.567 214.052 229.642 210.66 229.565C208.45 229.515 206.189 229.397 204.15 228.638C202.739 228.066 201.471 227.251 200.419 226.239C199.368 225.228 198.555 224.04 198.027 222.745C196.989 220.144 196.709 217.351 197.212 214.628C197.546 212.509 198.21 210.433 198.395 208.3C198.581 206.167 198.229 203.89 196.748 202.202C195.266 200.515 192.436 199.653 190.33 200.693C189.484 201.111 188.801 201.794 187.881 202.063C186.962 202.333 185.658 201.859 185.742 201.002L186.882 199.634Z" fill="#2F2E41"/>
<path d="M286.191 263.434L286.304 262.383L289.646 231.522C290.741 230.76 291.918 230.096 293.16 229.539C300.039 226.462 306.675 227.935 310.266 229.208C311.217 229.538 312.137 229.938 313.015 230.401L314.97 262.383L315.036 263.434H286.191Z" fill="#834BFF"/>
<path d="M301.842 223.308C309.879 223.308 316.395 217.525 316.395 210.391C316.395 203.257 309.879 197.474 301.842 197.474C293.804 197.474 287.289 203.257 287.289 210.391C287.289 217.525 293.804 223.308 301.842 223.308Z" fill="#FFB8B8"/>
<path d="M313.65 218.267C314.731 217.255 315.449 215.981 315.713 214.606C315.976 213.23 315.772 211.817 315.128 210.545C314.483 209.272 313.427 208.199 312.093 207.461C310.76 206.723 309.209 206.354 307.638 206.401C305.626 206.46 303.73 207.191 301.809 207.728C298.898 208.607 295.793 208.855 292.752 208.452C289.694 208.03 286.933 206.583 285.04 204.41C283.239 202.213 282.678 199.166 283.95 196.696C285.418 193.843 288.849 192.272 292.076 190.995C293.377 190.417 294.767 190.011 296.201 189.792C296.919 189.686 297.655 189.713 298.361 189.871C299.067 190.029 299.729 190.315 300.305 190.71C301.212 191.402 301.743 192.443 302.73 193.043C303.841 193.718 305.284 193.7 306.623 193.819C309.641 194.088 312.495 195.165 314.806 196.908C317.117 198.651 318.776 200.977 319.561 203.577C320.346 206.177 320.221 208.927 319.202 211.463C318.183 213.998 316.319 216.198 313.857 217.77L313.65 218.267Z" fill="#2F2E41"/>
<path d="M295.328 234.882L293.16 229.539L293.024 229.206C292.96 229.048 292.856 228.905 292.721 228.788C292.585 228.671 292.421 228.583 292.242 228.53C292.062 228.478 291.871 228.462 291.684 228.485C291.496 228.508 291.317 228.568 291.16 228.661L288.698 230.118C288.698 230.118 272.907 230.118 271.639 238.527C271.622 238.659 271.598 238.806 271.58 238.964C271.579 238.971 271.577 238.978 271.574 238.985C271.414 239.537 268.434 249.761 265.874 262.383C265.803 262.73 265.732 263.082 265.661 263.435H299.974C301.09 250.755 300.466 238.966 295.328 234.882Z" fill="#2F2E41"/>
<path d="M336.26 262.383C334.387 249.435 331.709 238.964 331.709 238.964C331.686 238.806 331.662 238.658 331.644 238.527C330.382 230.118 314.591 230.118 314.591 230.118L312.131 228.662C311.973 228.568 311.794 228.508 311.606 228.486C311.419 228.463 311.228 228.479 311.048 228.531C310.868 228.584 310.705 228.672 310.569 228.789C310.433 228.907 310.33 229.05 310.266 229.208L307.961 234.882C302.824 238.966 302.199 250.755 303.315 263.434L303.316 263.434H336.408C336.36 263.082 336.307 262.73 336.26 262.383Z" fill="#2F2E41"/>
<path d="M58.3195 232.9L54.7999 262.383L54.6755 263.434H45.1538C45.2663 263.093 45.3789 262.74 45.4975 262.383C48.1994 254.157 51.879 242.151 51.4817 238.969C50.8597 234.004 55.2148 232.347 55.2148 232.347L55.4874 232.395L58.3195 232.9Z" fill="#834BFF"/>
<path d="M73.6757 223.799C81.7131 223.799 88.2287 218.016 88.2287 210.882C88.2287 203.748 81.7131 197.965 73.6757 197.965C65.6383 197.965 59.1228 203.748 59.1228 210.882C59.1228 218.016 65.6383 223.799 73.6757 223.799Z" fill="#A0616A"/>
<path d="M92.5139 257.176C91.78 258.377 91.1788 259.638 90.7187 260.942C90.5468 261.404 90.381 261.888 90.2268 262.383C90.1143 262.724 90.0136 263.077 89.9129 263.434H51.5292C51.5827 263.087 51.6298 262.735 51.6834 262.383C53.6446 248.63 55.2324 234.672 55.4873 232.395C55.511 232.179 55.5229 232.069 55.5229 232.069C78.5245 221.308 95.3107 235.382 95.3107 235.382C95.3107 235.382 95.3344 235.482 95.37 235.676C95.7374 237.643 97.6096 249.129 92.5139 257.176Z" fill="#2F2E41"/>
<path d="M90.7187 260.942L88.1591 256.072L88.7811 236.76L95.37 235.676L95.6012 235.64C99.0068 237.397 101.642 240.125 103.079 243.381C104.359 246.221 106.794 254.762 108.85 262.383C108.945 262.735 109.039 263.087 109.134 263.434H92.0281L91.477 262.383L90.7187 260.942Z" fill="#834BFF"/>
<path d="M114.129 176.658H29.9794C28.1744 176.66 26.444 177.297 25.1677 178.43C23.8914 179.563 23.1734 181.099 23.1712 182.701V257.392C23.1734 258.994 23.8914 260.53 25.1677 261.662C26.444 262.795 28.1744 263.433 29.9794 263.434H114.129C115.935 263.433 117.666 262.796 118.942 261.663C120.218 260.53 120.936 258.994 120.937 257.392V182.701C120.936 181.098 120.218 179.562 118.942 178.429C117.666 177.296 115.935 176.659 114.129 176.658ZM119.752 257.392C119.751 258.715 119.158 259.984 118.104 260.92C117.05 261.855 115.62 262.381 114.129 262.383H29.9794C28.4887 262.381 27.0598 261.854 26.0057 260.919C24.9517 259.983 24.3585 258.715 24.3562 257.392V182.701C24.3585 181.378 24.9517 180.109 26.0057 179.174C27.0598 178.238 28.4887 177.712 29.9794 177.71H114.129C115.62 177.711 117.05 178.237 118.104 179.173C119.158 180.109 119.751 181.377 119.752 182.701V257.392ZM54.7999 262.383L54.6755 263.434H89.9129C90.0136 263.077 90.1142 262.724 90.2268 262.383H54.7999Z" fill="#3F3D56"/>
<path d="M227.07 176.658H142.92C141.115 176.66 139.384 177.297 138.108 178.43C136.832 179.563 136.114 181.099 136.112 182.701V257.392C136.114 258.994 136.832 260.53 138.108 261.662C139.384 262.795 141.115 263.433 142.92 263.434H227.07C228.875 263.433 230.606 262.796 231.882 261.663C233.159 260.53 233.877 258.994 233.878 257.392V182.701C233.877 181.098 233.159 179.562 231.882 178.429C230.606 177.296 228.875 176.659 227.07 176.658ZM232.693 257.392C232.691 258.715 232.099 259.984 231.044 260.92C229.99 261.855 228.561 262.381 227.07 262.383H142.92C141.429 262.381 140 261.854 138.946 260.919C137.892 259.983 137.299 258.715 137.297 257.392V182.701C137.299 181.378 137.892 180.109 138.946 179.174C140 178.238 141.429 177.712 142.92 177.71H227.07C228.561 177.711 229.99 178.237 231.044 179.173C232.099 180.109 232.691 181.377 232.693 182.701V257.392ZM158.462 262.383C158.533 262.609 158.61 262.835 158.693 263.061L158.545 263.434H187.969C187.999 263.082 188.023 262.73 188.052 262.383H158.462Z" fill="#3F3D56"/>
<path d="M340.016 176.658H255.866C254.061 176.659 252.33 177.296 251.054 178.429C249.777 179.562 249.059 181.098 249.058 182.701V257.392C249.059 258.994 249.777 260.53 251.054 261.663C252.33 262.796 254.061 263.433 255.866 263.434H340.016C341.821 263.432 343.552 262.795 344.828 261.662C346.104 260.53 346.822 258.994 346.824 257.392V182.701C346.822 181.099 346.104 179.563 344.828 178.43C343.552 177.297 341.821 176.66 340.016 176.658ZM345.639 257.392C345.637 258.715 345.044 259.983 343.99 260.919C342.936 261.854 341.507 262.381 340.016 262.383H255.866C254.375 262.382 252.946 261.855 251.892 260.92C250.837 259.984 250.245 258.715 250.243 257.392V182.701C250.245 181.377 250.837 180.109 251.892 179.173C252.946 178.237 254.375 177.711 255.866 177.71H340.016C341.507 177.712 342.936 178.238 343.99 179.174C345.044 180.109 345.637 181.378 345.639 182.701V257.392ZM300.063 262.383C300.033 262.73 300.003 263.082 299.974 263.434H325.505C325.553 263.087 325.606 262.735 325.654 262.383H300.063Z" fill="#3F3D56"/>
<path d="M282.764 293.938H87.2316C85.9745 293.938 84.7688 293.494 83.8798 292.705C82.9909 291.916 82.4915 290.846 82.4915 289.73C82.4915 288.615 82.9909 287.544 83.8798 286.755C84.7688 285.966 85.9745 285.523 87.2316 285.523H282.764C284.021 285.523 285.227 285.966 286.116 286.755C287.005 287.544 287.504 288.615 287.504 289.73C287.504 290.846 287.005 291.916 286.116 292.705C285.227 293.494 284.021 293.938 282.764 293.938Z" fill="#FAFAFA"/>
<path d="M227.956 154.569H142.04C140.783 154.569 139.577 154.126 138.688 153.337C137.799 152.548 137.3 151.478 137.3 150.362C137.3 149.246 137.799 148.176 138.688 147.387C139.577 146.598 140.783 146.155 142.04 146.155H227.956C229.213 146.155 230.418 146.598 231.307 147.387C232.196 148.176 232.696 149.246 232.696 150.362C232.696 151.478 232.196 152.548 231.307 153.337C230.418 154.126 229.213 154.569 227.956 154.569Z" fill="#BC9EFF"/>
<path d="M80.6367 222.136C81.1295 222.568 81.781 222.827 82.4717 222.866C83.1625 222.905 83.8459 222.722 84.3967 222.35C87.8266 220.093 90.8377 217.284 92.6196 213.858C94.6615 209.932 94.8893 205.115 92.4274 201.383C90.3463 198.229 86.6714 196.193 83.0088 194.522C81.5867 193.81 80.0549 193.286 78.4619 192.967C76.8519 192.651 75.167 192.893 73.7504 193.641C73.0574 194.027 72.5114 194.589 72.1837 195.254C71.856 195.92 71.7617 196.657 71.9133 197.371C70.154 195.589 67.9006 194.246 65.3766 193.476C63.7872 192.924 62.0469 192.812 60.3844 193.155C58.0602 193.74 56.3634 195.573 55.4354 197.552C54.6848 199.058 54.4257 200.721 54.6873 202.351C54.8251 203.163 55.1531 203.939 55.6502 204.631C56.1473 205.322 56.8025 205.914 57.5733 206.367C59.4949 207.422 61.9464 207.346 64.1533 206.915C66.3602 206.484 68.4964 205.734 70.746 205.544C72.9955 205.354 75.5006 205.852 76.8696 207.448C77.8337 208.572 78.0813 210.04 78.2977 211.439L79.4234 218.717C79.5155 219.77 79.8184 220.8 80.3181 221.759C80.4046 221.897 80.5118 222.024 80.6367 222.136Z" fill="#2F2E41"/>
</g>
<defs>
<clipPath id="clip0">
<rect width="370" height="323" fill="white"/>
</clipPath>
</defs>
</svg>
