<svg width="38" height="30" viewBox="0 0 38 30" fill="none" xmlns="http://www.w3.org/2000/svg">
<path d="M34.094 7.47654C34.1181 7.80464 34.1181 8.13283 34.1181 8.46093C34.1181 18.4687 26.2819 30 11.9594 30C7.54696 30 3.44799 28.7578 0 26.6016C0.626928 26.6719 1.22966 26.6953 1.88071 26.6953C5.52153 26.6953 8.87311 25.5 11.5495 23.461C8.12565 23.3906 5.25634 21.211 4.26774 18.2109C4.75002 18.2812 5.23222 18.3281 5.73862 18.3281C6.43783 18.3281 7.13713 18.2343 7.7881 18.0703C4.21957 17.3671 1.54309 14.3203 1.54309 10.6406V10.5469C2.57985 11.1094 3.78554 11.461 5.06337 11.5078C2.96564 10.1484 1.59133 7.82809 1.59133 5.20307C1.59133 3.79685 1.97705 2.50779 2.65222 1.38278C6.486 5.97652 12.2487 8.97647 18.7106 9.30466C18.5901 8.74215 18.5177 8.15627 18.5177 7.57032C18.5177 3.3984 21.9898 0 26.3058 0C28.5482 0 30.5736 0.91406 31.9962 2.39062C33.7563 2.06251 35.4441 1.42967 36.9391 0.562504C36.3604 2.32036 35.1307 3.79692 33.5152 4.73436C35.0825 4.57037 36.6016 4.1484 38 3.56253C36.9393 5.06246 35.613 6.39835 34.094 7.47654V7.47654Z" fill="#5E14A9" fill-opacity="0.69"/>
</svg>
