<svg width="16" height="20" viewBox="0 0 16 20" fill="none" xmlns="http://www.w3.org/2000/svg">
<path d="M3.5 0C4.03043 0 4.53914 0.210714 4.91421 0.585786C5.28929 0.960859 5.5 1.46957 5.5 2C5.5 2.53043 5.28929 3.03914 4.91421 3.41421C4.53914 3.78929 4.03043 4 3.5 4C2.96957 4 2.46086 3.78929 2.08579 3.41421C1.71071 3.03914 1.5 2.53043 1.5 2C1.5 1.46957 1.71071 0.960859 2.08579 0.585786C2.46086 0.210714 2.96957 0 3.5 0ZM2 5H5C5.53043 5 6.03914 5.21071 6.41421 5.58579C6.78929 5.96086 7 6.46957 7 7V12.5H5.5V20H1.5V12.5H0V7C0 6.46957 0.210714 5.96086 0.585786 5.58579C0.960859 5.21071 1.46957 5 2 5ZM12.5 0C13.0304 0 13.5391 0.210714 13.9142 0.585786C14.2893 0.960859 14.5 1.46957 14.5 2C14.5 2.53043 14.2893 3.03914 13.9142 3.41421C13.5391 3.78929 13.0304 4 12.5 4C11.9696 4 11.4609 3.78929 11.0858 3.41421C10.7107 3.03914 10.5 2.53043 10.5 2C10.5 1.46957 10.7107 0.960859 11.0858 0.585786C11.4609 0.210714 11.9696 0 12.5 0ZM11 5H14C14.5304 5 15.0391 5.21071 15.4142 5.58579C15.7893 5.96086 16 6.46957 16 7V12.5H14.5V20H10.5V12.5H9V7C9 6.46957 9.21071 5.96086 9.58579 5.58579C9.96086 5.21071 10.4696 5 11 5Z" fill="#99ADC1"/>
</svg>
